<svg width="357" height="361" viewBox="0 0 357 361" fill="none" xmlns="http://www.w3.org/2000/svg">
<path d="M101.007 35.7357L298.342 107.56V339.56C298.342 345.083 294.135 348.029 288.945 346.14L110.404 281.156C105.214 279.267 101.007 273.259 101.007 267.736V35.7357Z" fill="url(#paint0_linear_65_1145)"/>
<g opacity="0.7">
<rect x="0.939693" y="1.34202" width="97" height="84" rx="14" transform="matrix(0.939693 0.34202 0 1 194.093 194.274)" fill="#BDBDBD" stroke="#828282" stroke-width="2"/>
<rect width="43" height="4" rx="2" transform="matrix(0.939693 0.34202 0 1 211.891 231.094)" fill="#040F20"/>
<rect width="58" height="4" rx="2" transform="matrix(0.939693 0.34202 0 1 204.373 215.358)" fill="#040F20"/>
<rect width="77" height="4" rx="2" transform="matrix(0.939693 0.34202 0 1 204.373 207.358)" fill="#040F20"/>
<rect width="62" height="4" rx="2" transform="matrix(0.939693 0.34202 0 1 204.373 257.358)" fill="#040F20"/>
<rect width="28" height="4" rx="2" transform="matrix(0.939693 0.34202 0 1 204.373 265.358)" fill="#040F20"/>
<circle cx="2" cy="2" r="2" transform="matrix(0.939693 0.34202 0 1 204.373 228.358)" fill="#040F20"/>
<rect width="24" height="4" rx="2" transform="matrix(0.939693 0.34202 0 1 211.891 239.094)" fill="#040F20"/>
<rect width="51" height="4" rx="2" transform="matrix(0.939693 0.34202 0 1 211.891 247.094)" fill="#040F20"/>
<circle cx="2" cy="2" r="2" transform="matrix(0.939693 0.34202 0 1 204.373 244.358)" fill="#040F20"/>
<circle cx="2" cy="2" r="2" transform="matrix(0.939693 0.34202 0 1 204.373 236.358)" fill="#040F20"/>
</g>
<g opacity="0.7">
<rect width="99" height="49" rx="15" transform="matrix(0.939693 0.34202 0 1 111.343 108.498)" fill="#2BB5E3"/>
<rect width="77" height="4" rx="2" transform="matrix(0.939693 0.34202 0 1 121.68 121.26)" fill="#040F20"/>
<rect width="77" height="4" rx="2" transform="matrix(0.939693 0.34202 0 1 121.68 137.26)" fill="#040F20"/>
<rect width="65" height="4" rx="2" transform="matrix(0.939693 0.34202 0 1 121.68 129.26)" fill="#040F20"/>
<path d="M121.68 147.26C121.68 146.156 122.521 145.566 123.559 145.944L148.931 155.179C149.969 155.557 150.81 156.758 150.81 157.863C150.81 158.967 149.969 159.557 148.931 159.179L123.559 149.944C122.521 149.566 121.68 148.365 121.68 147.26Z" fill="#040F20"/>
</g>
<g opacity="0.7">
<rect x="0.939693" y="1.34202" width="97" height="31" rx="14" transform="matrix(0.939693 0.34202 0 1 194.093 98.2743)" fill="#BDBDBD" stroke="#828282" stroke-width="2"/>
<rect width="65" height="4" rx="2" transform="matrix(0.939693 0.34202 0 1 204.373 111.358)" fill="#040F20"/>
<rect width="43" height="4" rx="2" transform="matrix(0.939693 0.34202 0 1 204.373 119.358)" fill="#040F20"/>
</g>
<g opacity="0.7">
<rect width="99" height="33" rx="15" transform="matrix(0.939693 0.34202 0 1 111.343 28.4979)" fill="#2BB5E3"/>
<rect width="77" height="4" rx="2" transform="matrix(0.939693 0.34202 0 1 121.68 41.2602)" fill="#040F20"/>
<rect width="31" height="4" rx="2" transform="matrix(0.939693 0.34202 0 1 121.68 49.2602)" fill="#040F20"/>
</g>
<path d="M101.007 20.7357C101.007 15.2129 105.214 12.267 110.404 14.1559L288.945 79.1397C294.135 81.0287 298.342 87.0371 298.342 92.5599V107.56L101.007 35.7357V20.7357Z" fill="#4DEFA9"/>
<rect width="69" height="3" rx="1.5" transform="matrix(0.939693 0.34202 0 1 133.896 28.7064)" fill="#040F20"/>
<rect width="30" height="2" rx="1" transform="matrix(0.939693 0.34202 0 1 133.896 34.7064)" fill="#040F20"/>
<path fill-rule="evenodd" clip-rule="evenodd" d="M130.607 34.0095C130.607 33.8023 130.533 33.5766 130.4 33.382C130.268 33.1874 130.089 33.0398 129.902 32.9718L113.279 26.9216L117.715 23.6205C117.781 23.5717 117.833 23.5044 117.868 23.4224C117.904 23.3404 117.922 23.2453 117.922 23.1426C117.922 23.0399 117.904 22.9315 117.868 22.8237C117.833 22.7159 117.781 22.6107 117.715 22.5142C117.65 22.4177 117.572 22.3318 117.486 22.2613C117.401 22.1909 117.309 22.1372 117.216 22.1035C117.124 22.0698 117.032 22.0566 116.946 22.0648C116.861 22.0729 116.783 22.1022 116.717 22.151L111.079 26.3489C111.013 26.3976 110.961 26.4648 110.926 26.5468C110.89 26.6288 110.872 26.7239 110.872 26.8267C110.872 26.9294 110.89 27.0378 110.926 27.1457C110.961 27.2535 111.013 27.3587 111.079 27.4551L116.717 35.7573C116.783 35.8537 116.861 35.9397 116.946 36.0102C117.032 36.0806 117.124 36.1343 117.216 36.168C117.309 36.2017 117.401 36.2149 117.486 36.2067C117.572 36.1986 117.65 36.1693 117.715 36.1205C117.781 36.0717 117.833 36.0044 117.868 35.9224C117.904 35.8404 117.922 35.7453 117.922 35.6426C117.922 35.5399 117.904 35.4315 117.868 35.3237C117.833 35.2159 117.781 35.1107 117.715 35.0142L113.279 28.4841L129.902 34.5343C130.089 34.6023 130.268 34.5852 130.4 34.4868C130.533 34.3884 130.607 34.2167 130.607 34.0095Z" fill="#040F20"/>
<g opacity="0.7">
<circle cx="8" cy="8" r="8" transform="matrix(-1 0 0 1 349.007 207.736)" fill="#2BB5E3"/>
<rect width="6" height="32" transform="matrix(-1 0 0 1 344.007 215.736)" fill="#2BB5E3"/>
<rect width="5.65685" height="31.1127" transform="matrix(0.707107 0.707107 0.707107 -0.707107 318.007 265.736)" fill="#2BB5E3"/>
<path d="M327.007 301.736C327.007 297.317 323.425 293.736 319.007 293.736C314.589 293.736 311.007 297.317 311.007 301.736C311.007 306.154 314.589 309.736 319.007 309.736C323.425 309.736 327.007 306.154 327.007 301.736Z" fill="#2BB5E3"/>
<rect width="6" height="32" transform="matrix(1 0 0 -1 318.007 297.736)" fill="#2BB5E3"/>
</g>
<g opacity="0.7">
<circle cx="43.0068" cy="273.736" r="8" fill="#2BB5E3"/>
<circle cx="113.007" cy="328.736" r="8" fill="#2BB5E3"/>
<circle cx="74.0068" cy="352.736" r="8" fill="#2BB5E3"/>
<path d="M79.0068 304.236C79.0068 308.93 75.4251 312.736 71.0068 312.736C66.5886 312.736 63.0068 308.93 63.0068 304.236C63.0068 299.541 66.5886 295.736 71.0068 295.736C75.4251 295.736 79.0068 299.541 79.0068 304.236Z" fill="#2BB5E3"/>
<rect x="39.0068" y="273.736" width="7" height="32" fill="#2BB5E3"/>
<rect x="39.0391" y="306.299" width="7.00236" height="30.2744" transform="rotate(-30 39.0391 306.299)" fill="#2BB5E3"/>
<rect x="86.9395" y="324.948" width="7.00236" height="30.2744" transform="rotate(30 86.9395 324.948)" fill="#2BB5E3"/>
<rect x="54.0068" y="332.736" width="8" height="33" transform="rotate(-90 54.0068 332.736)" fill="#2BB5E3"/>
<rect x="54.0068" y="332.736" width="8" height="59" transform="rotate(-90 54.0068 332.736)" fill="#2BB5E3"/>
<rect x="69.1958" y="299.242" width="7.46668" height="34.1027" transform="rotate(30 69.1958 299.242)" fill="#2BB5E3"/>
</g>
<defs>
<linearGradient id="paint0_linear_65_1145" x1="101.007" y1="35.7357" x2="174.045" y2="376.319" gradientUnits="userSpaceOnUse">
<stop stop-color="#9C9C9C"/>
<stop offset="1" stop-color="#F2F9FD" stop-opacity="0.5"/>
</linearGradient>
</defs>
</svg>
