<svg width="316" height="348" viewBox="0 0 316 348" fill="none" xmlns="http://www.w3.org/2000/svg">
<path d="M66.832 22.7357L264.167 94.5599V326.56C264.167 332.083 259.96 335.029 254.771 333.14L76.229 268.156C71.0392 266.267 66.832 260.259 66.832 254.736V22.7357Z" fill="url(#paint0_linear_65_1145)"/>
<g opacity="0.7">
<rect x="0.939693" y="1.34202" width="97" height="84" rx="14" transform="matrix(0.939693 0.34202 0 1 159.918 181.274)" fill="#BDBDBD" stroke="#828282" stroke-width="2"/>
<rect width="43" height="4" rx="2" transform="matrix(0.939693 0.34202 0 1 177.716 218.094)" fill="#040F20"/>
<rect width="58" height="4" rx="2" transform="matrix(0.939693 0.34202 0 1 170.198 202.358)" fill="#040F20"/>
<rect width="77" height="4" rx="2" transform="matrix(0.939693 0.34202 0 1 170.198 194.358)" fill="#040F20"/>
<rect width="62" height="4" rx="2" transform="matrix(0.939693 0.34202 0 1 170.198 244.358)" fill="#040F20"/>
<rect width="28" height="4" rx="2" transform="matrix(0.939693 0.34202 0 1 170.198 252.358)" fill="#040F20"/>
<circle cx="2" cy="2" r="2" transform="matrix(0.939693 0.34202 0 1 170.198 215.358)" fill="#040F20"/>
<rect width="24" height="4" rx="2" transform="matrix(0.939693 0.34202 0 1 177.716 226.094)" fill="#040F20"/>
<rect width="51" height="4" rx="2" transform="matrix(0.939693 0.34202 0 1 177.716 234.094)" fill="#040F20"/>
<circle cx="2" cy="2" r="2" transform="matrix(0.939693 0.34202 0 1 170.198 231.358)" fill="#040F20"/>
<circle cx="2" cy="2" r="2" transform="matrix(0.939693 0.34202 0 1 170.198 223.358)" fill="#040F20"/>
</g>
<g opacity="0.7">
<rect width="99" height="49" rx="15" transform="matrix(0.939693 0.34202 0 1 77.1685 95.4979)" fill="#2BB5E3"/>
<rect width="77" height="4" rx="2" transform="matrix(0.939693 0.34202 0 1 87.5049 108.26)" fill="#040F20"/>
<rect width="77" height="4" rx="2" transform="matrix(0.939693 0.34202 0 1 87.5049 124.26)" fill="#040F20"/>
<rect width="65" height="4" rx="2" transform="matrix(0.939693 0.34202 0 1 87.5049 116.26)" fill="#040F20"/>
<path d="M87.5049 134.26C87.5049 133.156 88.3463 132.566 89.3843 132.944L114.756 142.179C115.794 142.557 116.635 143.758 116.635 144.863C116.635 145.967 115.794 146.557 114.756 146.179L89.3843 136.944C88.3463 136.566 87.5049 135.365 87.5049 134.26Z" fill="#040F20"/>
</g>
<g opacity="0.7">
<rect x="0.939693" y="1.34202" width="97" height="31" rx="14" transform="matrix(0.939693 0.34202 0 1 159.918 85.2743)" fill="#BDBDBD" stroke="#828282" stroke-width="2"/>
<rect width="65" height="4" rx="2" transform="matrix(0.939693 0.34202 0 1 170.198 98.3579)" fill="#040F20"/>
<rect width="43" height="4" rx="2" transform="matrix(0.939693 0.34202 0 1 170.198 106.358)" fill="#040F20"/>
</g>
<g opacity="0.7">
<rect width="99" height="33" rx="15" transform="matrix(0.939693 0.34202 0 1 77.1685 15.4979)" fill="#2BB5E3"/>
<rect width="77" height="4" rx="2" transform="matrix(0.939693 0.34202 0 1 87.5049 28.2602)" fill="#040F20"/>
<rect width="31" height="4" rx="2" transform="matrix(0.939693 0.34202 0 1 87.5049 36.2602)" fill="#040F20"/>
</g>
<path d="M66.832 7.73572C66.832 2.21287 71.0392 -0.733006 76.229 1.15592L254.771 66.1397C259.96 68.0287 264.167 74.0371 264.167 79.5599V94.5599L66.832 22.7357V7.73572Z" fill="#4DEFA9"/>
<rect width="69" height="3" rx="1.5" transform="matrix(0.939693 0.34202 0 1 99.7212 15.7064)" fill="#040F20"/>
<rect width="30" height="2" rx="1" transform="matrix(0.939693 0.34202 0 1 99.7212 21.7064)" fill="#040F20"/>
<path fill-rule="evenodd" clip-rule="evenodd" d="M96.4321 21.0095C96.4321 20.8023 96.3578 20.5766 96.2256 20.382C96.0935 20.1874 95.9142 20.0398 95.7273 19.9718L79.1046 13.9216L83.5404 10.6205C83.606 10.5717 83.6579 10.5044 83.6934 10.4224C83.7289 10.3404 83.7471 10.2453 83.7471 10.1426C83.7471 10.0399 83.7289 9.9315 83.6934 9.82369C83.6579 9.71588 83.606 9.61072 83.5404 9.51424C83.4749 9.41775 83.3971 9.33182 83.3115 9.26135C83.2259 9.19087 83.1341 9.13724 83.0415 9.10351C82.9488 9.06978 82.857 9.05662 82.7714 9.06477C82.6858 9.07292 82.608 9.10222 82.5425 9.15101L76.9043 13.3489C76.8387 13.3976 76.7866 13.4648 76.7511 13.5468C76.7156 13.6288 76.6973 13.7239 76.6973 13.8267C76.6973 13.9294 76.7156 14.0378 76.7511 14.1457C76.7866 14.2535 76.8387 14.3587 76.9043 14.4551L82.5425 22.7573C82.608 22.8537 82.6858 22.9397 82.7714 23.0102C82.857 23.0806 82.9488 23.1343 83.0415 23.168C83.1341 23.2017 83.2259 23.2149 83.3115 23.2067C83.3971 23.1986 83.4749 23.1693 83.5404 23.1205C83.606 23.0717 83.6579 23.0044 83.6934 22.9224C83.7289 22.8404 83.7471 22.7453 83.7471 22.6426C83.7471 22.5399 83.7289 22.4315 83.6934 22.3237C83.6579 22.2159 83.606 22.1107 83.5404 22.0142L79.1046 15.4841L95.7273 21.5343C95.9142 21.6023 96.0935 21.5852 96.2256 21.4868C96.3578 21.3884 96.4321 21.2167 96.4321 21.0095Z" fill="#040F20"/>
<g opacity="0.7">
<circle cx="8" cy="8" r="8" transform="matrix(-1 0 0 1 314.832 194.736)" fill="#2BB5E3"/>
<rect width="6" height="32" transform="matrix(-1 0 0 1 309.832 202.736)" fill="#2BB5E3"/>
<rect width="5.65685" height="31.1127" transform="matrix(0.707107 0.707107 0.707107 -0.707107 283.832 252.736)" fill="#2BB5E3"/>
<path d="M292.832 288.736C292.832 284.317 289.25 280.736 284.832 280.736C280.414 280.736 276.832 284.317 276.832 288.736C276.832 293.154 280.414 296.736 284.832 296.736C289.25 296.736 292.832 293.154 292.832 288.736Z" fill="#2BB5E3"/>
<rect width="6" height="32" transform="matrix(1 0 0 -1 283.832 284.736)" fill="#2BB5E3"/>
</g>
<g opacity="0.7">
<circle cx="8.83203" cy="260.736" r="8" fill="#2BB5E3"/>
<circle cx="78.832" cy="315.736" r="8" fill="#2BB5E3"/>
<circle cx="39.832" cy="339.736" r="8" fill="#2BB5E3"/>
<path d="M44.832 291.236C44.832 295.93 41.2503 299.736 36.832 299.736C32.4138 299.736 28.832 295.93 28.832 291.236C28.832 286.541 32.4138 282.736 36.832 282.736C41.2503 282.736 44.832 286.541 44.832 291.236Z" fill="#2BB5E3"/>
<rect x="4.83203" y="260.736" width="7" height="32" fill="#2BB5E3"/>
<rect x="4.86426" y="293.299" width="7.00236" height="30.2744" transform="rotate(-30 4.86426 293.299)" fill="#2BB5E3"/>
<rect x="52.7646" y="311.948" width="7.00236" height="30.2744" transform="rotate(30 52.7646 311.948)" fill="#2BB5E3"/>
<rect x="19.832" y="319.736" width="8" height="33" transform="rotate(-90 19.832 319.736)" fill="#2BB5E3"/>
<rect x="19.832" y="319.736" width="8" height="59" transform="rotate(-90 19.832 319.736)" fill="#2BB5E3"/>
<rect x="35.021" y="286.242" width="7.46668" height="34.1027" transform="rotate(30 35.021 286.242)" fill="#2BB5E3"/>
</g>
<defs>
<linearGradient id="paint0_linear_65_1145" x1="66.832" y1="22.7357" x2="139.87" y2="363.319" gradientUnits="userSpaceOnUse">
<stop stop-color="#9C9C9C"/>
<stop offset="1" stop-color="#F2F9FD" stop-opacity="0.5"/>
</linearGradient>
</defs>
</svg>
