<svg width="44" height="44" viewBox="0 0 44 44" fill="none" xmlns="http://www.w3.org/2000/svg">
<g clip-path="url(#clip0_35_750)">
<path d="M21.9922 43.9224C9.90195 43.9224 0.0776062 34.0825 0.0776062 21.9922C0.0776062 9.90191 9.90195 0.0775757 21.9922 0.0775757C34.0825 0.0775757 43.9224 9.90191 43.9224 21.9922C43.9224 34.0825 34.0825 43.9224 21.9922 43.9224ZM21.9922 1.6296C10.7556 1.6296 1.61411 10.7711 1.61411 22.0077C1.61411 33.2444 10.7556 42.3703 21.9922 42.3703C33.2289 42.3703 42.3704 33.2289 42.3704 21.9922C42.3704 10.7555 33.2289 1.6296 21.9922 1.6296Z" fill="white"/>
<path d="M12.7266 13.5958L12.4317 13.813C12.5249 13.7354 12.618 13.6578 12.7266 13.5958Z" fill="white"/>
<path d="M11.873 15.1478C11.873 14.6201 12.0903 14.1545 12.4317 13.813L13.6113 14.2476C13.4561 15.0392 13.3629 15.8772 13.3629 16.7309L11.8575 16.1721V15.1478H11.873Z" fill="white"/>
<path d="M13.6889 13.9372L12.7266 13.5958C13.0215 13.4095 13.363 13.3009 13.7354 13.3009H13.8441C13.782 13.5027 13.7354 13.72 13.6889 13.9372Z" fill="white"/>
<path d="M13.9527 20.7351H13.7355C12.7111 20.7351 11.873 19.897 11.873 18.8726V16.498L13.3785 17.0568C13.394 18.3605 13.5958 19.6021 13.9527 20.7351Z" fill="white"/>
<path d="M25.593 31.8321L22.0078 33.8963L18.4691 31.8476C18.5933 30.5439 18.702 29.1937 18.7485 27.9055C19.7418 28.4797 20.8438 28.7901 22.0078 28.7901C23.1718 28.7901 24.2737 28.4642 25.2825 27.89C25.3446 29.1626 25.4533 30.5284 25.593 31.8321Z" fill="white"/>
<path d="M26.3069 33.1048L25.7947 33.3996L24.0099 34.424L21.9922 35.588L19.9746 34.424L18.2363 33.4152L17.6776 33.0892C14.0614 36.1157 9.7933 37.0003 9.68466 37.0314C9.68466 37.0314 21.4335 45.7538 34.2843 37.0314C34.2998 37.0469 29.9541 36.1623 26.3069 33.1048ZM21.9922 40.151L20.7972 38.7076L21.9922 35.6035L23.1873 38.7076L21.9922 40.151Z" fill="white"/>
<path d="M15.2564 14.8374L14.17 14.4494C14.0303 15.2254 13.9527 16.0169 13.9527 16.855C13.9527 16.8861 13.9527 16.9326 13.9527 16.9637L14.9615 17.3517L15.3496 15.0392C15.303 14.9771 15.2564 14.8995 15.2564 14.8374ZM29.6437 17.1344C29.5972 17.243 29.4885 17.3206 29.3488 17.3206C29.1781 17.3206 29.0384 17.181 29.0384 17.0102C29.0384 16.9792 29.0384 16.9481 29.054 16.9171L28.4176 16.2187C28.3866 16.2187 28.3711 16.2342 28.34 16.2342H28.3245L27.8589 17.181C27.8899 17.2275 27.9055 17.2896 27.9055 17.3517C27.9055 17.5224 27.7658 17.6621 27.5951 17.6621C27.4243 17.6621 27.2846 17.5224 27.2846 17.3517C27.2846 17.181 27.4088 17.0568 27.5795 17.0413L28.0607 16.0635C28.0451 16.0169 28.0296 15.9704 28.0296 15.9238C28.0296 15.7686 28.1383 15.6444 28.2935 15.6134L29.2712 13.1612C29.2247 13.1146 29.2092 13.0526 29.2092 12.975L27.5485 12.1058C27.5019 12.1524 27.4243 12.1679 27.3623 12.1679C27.1915 12.1679 27.0518 12.0282 27.0518 11.8575C27.0518 11.7954 27.0674 11.7489 27.0984 11.7023L26.369 10.3831C26.3534 10.3831 26.3379 10.3831 26.3224 10.3831C26.2603 10.3831 26.1982 10.3675 26.1361 10.3365L25.4377 11.0504C25.4377 11.0815 25.4533 11.1125 25.4533 11.128C25.4533 11.2988 25.3136 11.4384 25.1428 11.4384C24.9721 11.4384 24.8324 11.2988 24.8324 11.128C24.8324 10.9573 24.9721 10.8176 25.1428 10.8176C25.1739 10.8176 25.1894 10.8176 25.2205 10.8332L25.9344 10.1037C25.9189 10.0727 25.9189 10.0416 25.9189 9.99506C25.9189 9.7933 26.0896 9.62258 26.3224 9.60706C26.369 9.60706 26.4 9.60705 26.4466 9.62258L27.207 8.76896C27.0518 8.59824 26.8811 8.42751 26.7104 8.27231L25.9654 9.11041C25.9965 9.15697 26.012 9.21905 26.012 9.28113C26.012 9.49841 25.8413 9.66914 25.6085 9.66914C25.4843 9.66914 25.3601 9.60705 25.2825 9.51393L24.3358 9.77778C24.3048 9.91746 24.1806 10.0106 24.0409 10.0106C23.8702 10.0106 23.7305 9.8709 23.7305 9.70018C23.7305 9.52945 23.8702 9.38977 24.0409 9.38977C24.1185 9.38977 24.1961 9.42081 24.2582 9.48289L25.2049 9.21905C25.236 9.04833 25.4067 8.90864 25.5929 8.90864C25.6395 8.90864 25.6705 8.90864 25.7171 8.92416L26.4776 8.07055C25.2049 6.96861 23.6684 6.33228 22.0233 6.33228C20.3316 6.33228 18.764 6.99965 17.4758 8.16367L18.6088 9.14145C18.6864 9.09489 18.7951 9.06385 18.9037 9.06385C19.1986 9.06385 19.4314 9.29665 19.4314 9.59153C19.4314 9.88642 19.1986 10.1192 18.9037 10.1192C18.6088 10.1192 18.376 9.88642 18.376 9.59153C18.376 9.51393 18.3915 9.43633 18.4226 9.37425L17.2585 8.38095C16.8861 8.73792 16.5446 9.14145 16.2187 9.56049L17.3827 10.3986C17.4603 10.3365 17.5534 10.2899 17.6621 10.2899C17.957 10.2589 18.2208 10.4762 18.2518 10.7556C18.2829 11.0039 18.1277 11.2367 17.8949 11.3143L17.8638 12.1834C17.957 12.23 18.0035 12.3386 18.0035 12.4473C18.0035 12.618 17.8638 12.7577 17.6931 12.7577C17.6155 12.7577 17.5534 12.7266 17.5069 12.6956L16.1411 13.1922C16.1256 13.3009 16.0324 13.394 15.9238 13.425L15.7376 14.5425C15.8152 14.6046 15.8617 14.6822 15.8617 14.7908C15.8617 14.9305 15.7686 15.0392 15.6444 15.0857L15.2409 17.4448L16.6998 17.988C16.7619 17.9414 16.824 17.9104 16.9016 17.9104C17.0723 17.9104 17.212 18.0501 17.212 18.2208C17.212 18.3915 17.0723 18.5312 16.9016 18.5312C16.7464 18.5312 16.6222 18.4226 16.5912 18.2674L13.9527 17.2741C14.0924 21.7905 16.436 25.5619 19.6332 26.8346L19.866 25.6085C19.7728 25.5619 19.7108 25.4843 19.6487 25.4067C19.509 25.1429 19.6021 24.8325 19.8504 24.6772C20.1143 24.5376 20.4247 24.6152 20.5799 24.879C20.7196 25.1273 20.6264 25.4533 20.3781 25.6085C20.316 25.6395 20.2384 25.6705 20.1764 25.6705L19.928 26.9587C20.5333 27.176 21.1697 27.3002 21.837 27.3157L21.8215 25.8878C21.7284 25.8568 21.6353 25.8102 21.5732 25.7326C21.3714 25.5153 21.4025 25.1739 21.6197 24.9877C21.837 24.7859 22.1785 24.8169 22.3647 25.0342C22.5665 25.2515 22.5354 25.5929 22.3182 25.7792C22.2561 25.8258 22.194 25.8568 22.1319 25.8878L22.1474 27.3157C22.8614 27.3002 23.5443 27.1605 24.1961 26.9277L23.8547 25.7171C23.7615 25.7171 23.6529 25.6861 23.5753 25.624C23.327 25.4533 23.2649 25.1273 23.4201 24.879C23.5753 24.6307 23.9167 24.5686 24.1651 24.7238C24.4134 24.879 24.4755 25.2205 24.3203 25.4688C24.2737 25.5309 24.2272 25.5774 24.1651 25.624L24.5065 26.8035C27.7037 25.4688 30.0317 21.6198 30.1093 17.0413L29.6437 17.1344ZM23.8857 11.6713C23.9633 11.7333 24.0099 11.8265 24.0099 11.9196C24.0099 12.0903 23.8702 12.23 23.6995 12.23C23.5287 12.23 23.3891 12.0903 23.3891 11.9196C23.3891 11.7954 23.4667 11.6868 23.5598 11.6402C23.5132 11.097 23.3425 10.6935 23.0321 10.4607C22.7217 10.2123 22.3337 10.1813 22.1474 10.1813V19.5866C22.1474 19.7728 22.225 20.1919 22.3958 20.285C22.4578 20.316 22.551 20.3005 22.6596 20.254C22.6596 20.2384 22.6596 20.2384 22.6596 20.2229C22.6596 20.0367 22.8148 19.866 23.0166 19.866C23.2183 19.866 23.3735 20.0212 23.3735 20.2229C23.3735 20.4247 23.2183 20.5799 23.0166 20.5799C22.9545 20.5799 22.8924 20.5644 22.8303 20.5333C22.7062 20.5954 22.582 20.6265 22.4734 20.6265C22.3958 20.6265 22.3337 20.6109 22.2561 20.5799C21.8526 20.3937 21.8215 19.6797 21.8215 19.6021V10.1813C21.6353 10.1813 21.2473 10.1968 20.9369 10.4607C20.6264 10.7245 20.4402 11.1591 20.4092 11.7489L20.0988 11.7333C20.1298 11.0504 20.3471 10.5383 20.7351 10.2123C21.1231 9.90194 21.5732 9.8709 21.806 9.8709V9.35873C21.6663 9.29665 21.5577 9.17249 21.5577 9.01728C21.5577 8.81552 21.7284 8.6448 21.9612 8.62928C22.1785 8.62928 22.3647 8.8 22.3647 9.00176C22.3647 9.15697 22.2716 9.29665 22.1164 9.35873V9.8709C22.3492 9.85538 22.7993 9.90194 23.1873 10.2123C23.6374 10.5228 23.8391 11.0194 23.8857 11.6713ZM20.6109 12.1679C20.6109 12.3386 20.4712 12.4783 20.3005 12.4783C20.1298 12.4783 19.9901 12.3386 19.9901 12.1679C19.9901 11.9972 20.1298 11.8575 20.3005 11.8575C20.4712 11.8575 20.6109 11.9972 20.6109 12.1679ZM20.1764 7.85326C20.285 7.85326 20.3781 7.89982 20.4402 7.96191C21.061 7.76014 22.4423 7.41869 23.5908 7.93086C23.6529 7.8843 23.7305 7.85326 23.8236 7.85326C24.0254 7.85326 24.1961 8.02399 24.1961 8.22575C24.1961 8.42751 24.0254 8.59824 23.8236 8.59824C23.6219 8.59824 23.4511 8.42751 23.4511 8.22575C23.4511 8.21023 23.4511 8.21023 23.4511 8.19471C22.4268 7.7291 21.1386 8.05503 20.5644 8.24127C20.5488 8.44303 20.3936 8.58272 20.1919 8.58272C19.9901 8.58272 19.8194 8.41199 19.8194 8.21023C19.8039 8.02399 19.9746 7.85326 20.1764 7.85326ZM18.8571 17.0102C17.7862 17.0102 16.9171 16.1411 16.9171 15.0702C16.9171 13.9993 17.7862 13.1302 18.8571 13.1302C19.928 13.1302 20.7972 13.9993 20.7972 15.0702C20.7972 16.1411 19.928 17.0102 18.8571 17.0102ZM23.9478 23.0011C23.9012 23.0011 23.8702 23.0011 23.8236 22.9855C23.2804 23.358 22.7217 23.4977 22.1785 23.4977C21.3249 23.4977 20.5799 23.1718 20.2074 22.97C20.1608 23.0011 20.1143 23.0166 20.0522 23.0166C19.8815 23.0166 19.7418 22.8769 19.7418 22.7062C19.7418 22.5354 19.8815 22.3958 20.0522 22.3958C20.2229 22.3958 20.3626 22.5354 20.3626 22.7062C20.9213 23.0011 22.3802 23.6063 23.6374 22.7527C23.6374 22.7372 23.6374 22.7217 23.6374 22.7062C23.6374 22.5354 23.7771 22.3958 23.9478 22.3958C24.1185 22.3958 24.2582 22.5354 24.2582 22.7062C24.2582 22.8614 24.1185 23.0011 23.9478 23.0011ZM25.0808 17.0102C24.0099 17.0102 23.1407 16.1411 23.1407 15.0702C23.1407 13.9993 24.0099 13.1302 25.0808 13.1302C26.1517 13.1302 27.0208 13.9993 27.0208 15.0702C27.0363 16.1411 26.1672 17.0102 25.0808 17.0102ZM26.7104 10.0106C26.7104 10.1037 26.6794 10.1813 26.6328 10.2434L27.3623 11.5626C27.5175 11.5626 27.6416 11.6868 27.6571 11.8265L29.3644 12.7266C29.3799 12.7111 29.4109 12.7111 29.4264 12.6956C28.9608 11.2988 28.2624 10.0416 27.3933 9.04832L26.6638 9.85538C26.6949 9.88642 26.7104 9.9485 26.7104 10.0106ZM29.6127 13.2698C29.5972 13.2698 29.5817 13.2698 29.5661 13.2854L28.5884 15.7376C28.6349 15.7841 28.6504 15.8617 28.6504 15.9238C28.6504 15.9549 28.6504 15.9859 28.6349 16.0169L29.2712 16.7153C29.2868 16.7153 29.3178 16.7153 29.3333 16.7153C29.4264 16.7153 29.5196 16.7619 29.5817 16.8395L30.0628 16.7619C30.0783 15.5203 29.9076 14.3563 29.6127 13.2698ZM17.1965 10.8797C17.1965 10.8021 17.1965 10.74 17.212 10.6624L16.0169 9.83986C15.1788 11.0504 14.558 12.5093 14.2321 14.139L15.3651 14.5425C15.3806 14.527 15.4116 14.5115 15.4427 14.4959L15.6444 13.3474C15.5824 13.2854 15.5513 13.2078 15.5513 13.1146C15.5513 12.9905 15.6289 12.8818 15.7376 12.8353L15.8462 12.23C15.7841 12.1679 15.7531 12.0903 15.7531 11.9972C15.7531 11.8265 15.8928 11.6868 16.0635 11.6868C16.2342 11.6868 16.3739 11.8265 16.3739 11.9972C16.3739 12.1369 16.2808 12.261 16.1566 12.2921L16.0635 12.8508L16.079 12.8663L17.3827 12.4162C17.3982 12.3231 17.4603 12.23 17.5379 12.1834L17.569 11.3298C17.3672 11.2677 17.212 11.097 17.1965 10.8797Z" fill="white"/>
<path d="M18.8571 16.5757C18.019 16.5757 17.3362 15.8928 17.3362 15.0547C17.3362 14.2166 18.019 13.5337 18.8571 13.5337C19.6952 13.5337 20.3781 14.2166 20.3781 15.0547C20.3626 15.9083 19.6797 16.5757 18.8571 16.5757ZM18.8571 13.8596C18.1898 13.8596 17.6466 14.4028 17.6466 15.0702C17.6466 15.7376 18.1898 16.2808 18.8571 16.2808C19.5245 16.2808 20.0677 15.7376 20.0677 15.0702C20.0677 14.4028 19.509 13.8596 18.8571 13.8596Z" fill="white"/>
<path d="M25.0808 16.5757C24.2427 16.5757 23.5598 15.8928 23.5598 15.0547C23.5598 14.2166 24.2427 13.5337 25.0808 13.5337C25.9189 13.5337 26.6018 14.2166 26.6018 15.0547C26.6018 15.9083 25.9189 16.5757 25.0808 16.5757ZM25.0808 13.8596C24.4134 13.8596 23.8702 14.4028 23.8702 15.0702C23.8702 15.7376 24.4134 16.2808 25.0808 16.2808C25.7481 16.2808 26.2914 15.7376 26.2914 15.0702C26.2914 14.4028 25.7481 13.8596 25.0808 13.8596Z" fill="white"/>
<path d="M18.8571 15.6599C19.1829 15.6599 19.4469 15.3959 19.4469 15.0702C19.4469 14.7445 19.1829 14.4804 18.8571 14.4804C18.5314 14.4804 18.2674 14.7445 18.2674 15.0702C18.2674 15.3959 18.5314 15.6599 18.8571 15.6599Z" fill="white"/>
<path d="M25.0808 15.6599C25.4065 15.6599 25.6705 15.3959 25.6705 15.0702C25.6705 14.7445 25.4065 14.4804 25.0808 14.4804C24.755 14.4804 24.491 14.7445 24.491 15.0702C24.491 15.3959 24.755 15.6599 25.0808 15.6599Z" fill="white"/>
<path d="M30.2956 13.2078C30.2646 13.0836 30.2335 12.9594 30.2025 12.8198H30.3111C31.1492 12.8198 31.8632 13.3785 32.096 14.139L31.351 13.751C31.3355 13.5958 31.1958 13.4716 31.0406 13.4716C30.994 13.4716 30.9319 13.4871 30.8854 13.5182L30.2956 13.2078Z" fill="white"/>
<path d="M32.1735 16.6998V18.4071C32.1735 19.4314 31.3354 20.2695 30.3111 20.2695H30.0938C30.4197 19.2296 30.606 18.1277 30.6681 16.9637L31.1802 16.8706L31.0871 18.5933C30.9785 18.6399 30.9164 18.7485 30.9164 18.8727C30.9164 19.0434 31.0561 19.1831 31.2268 19.1831C31.3975 19.1831 31.5372 19.0434 31.5372 18.8727C31.5372 18.764 31.4751 18.6709 31.3975 18.6088L31.5062 16.8085L32.1735 16.6998Z" fill="white"/>
<path d="M32.1735 14.6822V16.3894L30.6681 16.6378C30.6681 16.5446 30.6681 16.4515 30.6681 16.3584C30.6681 15.3961 30.5749 14.4649 30.3887 13.5803L30.7301 13.751C30.7301 13.9217 30.8698 14.0614 31.0406 14.0614C31.1026 14.0614 31.1647 14.0459 31.2268 13.9993L32.1735 14.496C32.1735 14.5891 32.1735 14.6356 32.1735 14.6822Z" fill="white"/>
<path d="M8.30334 19.6487C8.8605 19.6487 9.31216 19.197 9.31216 18.6399C9.31216 18.0827 8.8605 17.631 8.30334 17.631C7.74619 17.631 7.29453 18.0827 7.29453 18.6399C7.29453 19.197 7.74619 19.6487 8.30334 19.6487Z" fill="white"/>
<path d="M4.19049 21.2783C4.74764 21.2783 5.19931 20.8267 5.19931 20.2695C5.19931 19.7123 4.74764 19.2607 4.19049 19.2607C3.63333 19.2607 3.18167 19.7123 3.18167 20.2695C3.18167 20.8267 3.63333 21.2783 4.19049 21.2783Z" fill="white"/>
<path d="M10.6779 23.389C11.2351 23.389 11.6868 22.9374 11.6868 22.3802C11.6868 21.8231 11.2351 21.3714 10.6779 21.3714C10.1208 21.3714 9.66913 21.8231 9.66913 22.3802C9.66913 22.9374 10.1208 23.389 10.6779 23.389Z" fill="white"/>
<path d="M15.6444 30.5594C16.2016 30.5594 16.6533 30.1078 16.6533 29.5506C16.6533 28.9935 16.2016 28.5418 15.6444 28.5418C15.0873 28.5418 14.6356 28.9935 14.6356 29.5506C14.6356 30.1078 15.0873 30.5594 15.6444 30.5594Z" fill="white"/>
<path d="M9.70016 34.3774C10.2573 34.3774 10.709 33.9258 10.709 33.3686C10.709 32.8115 10.2573 32.3598 9.70016 32.3598C9.14301 32.3598 8.69135 32.8115 8.69135 33.3686C8.69135 33.9258 9.14301 34.3774 9.70016 34.3774Z" fill="white"/>
<path d="M6.95309 12.7111C7.51025 12.7111 7.96191 12.2595 7.96191 11.7023C7.96191 11.1451 7.51025 10.6935 6.95309 10.6935C6.39594 10.6935 5.94427 11.1451 5.94427 11.7023C5.94427 12.2595 6.39594 12.7111 6.95309 12.7111Z" fill="white"/>
<path d="M8.92416 15.7996C9.48132 15.7996 9.93298 15.348 9.93298 14.7908C9.93298 14.2336 9.48132 13.782 8.92416 13.782C8.36701 13.782 7.91534 14.2336 7.91534 14.7908C7.91534 15.348 8.36701 15.7996 8.92416 15.7996Z" fill="white"/>
<path d="M11.454 12.3541C12.0111 12.3541 12.4628 11.9025 12.4628 11.3453C12.4628 10.7882 12.0111 10.3365 11.454 10.3365C10.8968 10.3365 10.4452 10.7882 10.4452 11.3453C10.4452 11.9025 10.8968 12.3541 11.454 12.3541Z" fill="white"/>
<path d="M11.454 8.83105C12.0111 8.83105 12.4628 8.37939 12.4628 7.82223C12.4628 7.26508 12.0111 6.81342 11.454 6.81342C10.8968 6.81342 10.4452 7.26508 10.4452 7.82223C10.4452 8.37939 10.8968 8.83105 11.454 8.83105Z" fill="white"/>
<path d="M18.2519 6.36334C18.809 6.36334 19.2607 5.91168 19.2607 5.35452C19.2607 4.79737 18.809 4.3457 18.2519 4.3457C17.6947 4.3457 17.243 4.79737 17.243 5.35452C17.243 5.91168 17.6947 6.36334 18.2519 6.36334Z" fill="white"/>
<path d="M22.8769 4.15942C23.434 4.15942 23.8857 3.70776 23.8857 3.1506C23.8857 2.59345 23.434 2.14178 22.8769 2.14178C22.3197 2.14178 21.8681 2.59345 21.8681 3.1506C21.8681 3.70776 22.3197 4.15942 22.8769 4.15942Z" fill="white"/>
<path d="M27.921 7.49627C28.4781 7.49627 28.9298 7.04461 28.9298 6.48746C28.9298 5.9303 28.4781 5.47864 27.921 5.47864C27.3638 5.47864 26.9122 5.9303 26.9122 6.48746C26.9122 7.04461 27.3638 7.49627 27.921 7.49627Z" fill="white"/>
<path d="M35.4794 10.0882C36.0365 10.0882 36.4882 9.63653 36.4882 9.07937C36.4882 8.52222 36.0365 8.07056 35.4794 8.07056C34.9222 8.07056 34.4706 8.52222 34.4706 9.07937C34.4706 9.63653 34.9222 10.0882 35.4794 10.0882Z" fill="white"/>
<path d="M34.9982 15.303C35.5554 15.303 36.007 14.8513 36.007 14.2942C36.007 13.737 35.5554 13.2853 34.9982 13.2853C34.4411 13.2853 33.9894 13.737 33.9894 14.2942C33.9894 14.8513 34.4411 15.303 34.9982 15.303Z" fill="white"/>
<path d="M31.7234 11.8265C32.2806 11.8265 32.7323 11.3748 32.7323 10.8177C32.7323 10.2605 32.2806 9.80884 31.7234 9.80884C31.1663 9.80884 30.7146 10.2605 30.7146 10.8177C30.7146 11.3748 31.1663 11.8265 31.7234 11.8265Z" fill="white"/>
<path d="M39.1111 17.181C39.6683 17.181 40.1199 16.7293 40.1199 16.1721C40.1199 15.615 39.6683 15.1633 39.1111 15.1633C38.554 15.1633 38.1023 15.615 38.1023 16.1721C38.1023 16.7293 38.554 17.181 39.1111 17.181Z" fill="white"/>
<path d="M37.8695 14.139C38.4266 14.139 38.8783 13.6873 38.8783 13.1302C38.8783 12.573 38.4266 12.1213 37.8695 12.1213C37.3123 12.1213 36.8607 12.573 36.8607 13.1302C36.8607 13.6873 37.3123 14.139 37.8695 14.139Z" fill="white"/>
<path d="M34.5792 20.1143C35.1363 20.1143 35.588 19.6627 35.588 19.1055C35.588 18.5483 35.1363 18.0967 34.5792 18.0967C34.022 18.0967 33.5704 18.5483 33.5704 19.1055C33.5704 19.6627 34.022 20.1143 34.5792 20.1143Z" fill="white"/>
<path d="M39.5457 25.6861C40.1028 25.6861 40.5545 25.2344 40.5545 24.6773C40.5545 24.1201 40.1028 23.6685 39.5457 23.6685C38.9885 23.6685 38.5369 24.1201 38.5369 24.6773C38.5369 25.2344 38.9885 25.6861 39.5457 25.6861Z" fill="white"/>
<path d="M35.588 23.1252C36.1452 23.1252 36.5968 22.6736 36.5968 22.1164C36.5968 21.5593 36.1452 21.1076 35.588 21.1076C35.0309 21.1076 34.5792 21.5593 34.5792 22.1164C34.5792 22.6736 35.0309 23.1252 35.588 23.1252Z" fill="white"/>
<path d="M31.6769 28.3245C32.2341 28.3245 32.6857 27.8729 32.6857 27.3157C32.6857 26.7585 32.2341 26.3069 31.6769 26.3069C31.1198 26.3069 30.6681 26.7585 30.6681 27.3157C30.6681 27.8729 31.1198 28.3245 31.6769 28.3245Z" fill="white"/>
<path d="M31.5993 24.6772C32.1565 24.6772 32.6081 24.2256 32.6081 23.6684C32.6081 23.1113 32.1565 22.6596 31.5993 22.6596C31.0421 22.6596 30.5905 23.1113 30.5905 23.6684C30.5905 24.2256 31.0421 24.6772 31.5993 24.6772Z" fill="white"/>
<path d="M28.34 28.7746C28.8972 28.7746 29.3488 28.3229 29.3488 27.7658C29.3488 27.2086 28.8972 26.757 28.34 26.757C27.7829 26.757 27.3312 27.2086 27.3312 27.7658C27.3312 28.3229 27.7829 28.7746 28.34 28.7746Z" fill="white"/>
<path d="M31.6769 35.0448C32.2341 35.0448 32.6857 34.5931 32.6857 34.036C32.6857 33.4788 32.2341 33.0272 31.6769 33.0272C31.1198 33.0272 30.6681 33.4788 30.6681 34.036C30.6681 34.5931 31.1198 35.0448 31.6769 35.0448Z" fill="white"/>
<path d="M37.6057 29.5506C38.1628 29.5506 38.6145 29.0989 38.6145 28.5418C38.6145 27.9846 38.1628 27.533 37.6057 27.533C37.0485 27.533 36.5968 27.9846 36.5968 28.5418C36.5968 29.0989 37.0485 29.5506 37.6057 29.5506Z" fill="white"/>
<path d="M29.3333 31.9252C29.8905 31.9252 30.3422 31.4736 30.3422 30.9164C30.3422 30.3593 29.8905 29.9076 29.3333 29.9076C28.7762 29.9076 28.3245 30.3593 28.3245 30.9164C28.3245 31.4736 28.7762 31.9252 29.3333 31.9252Z" fill="white"/>
<path d="M35.588 34.1136C36.1452 34.1136 36.5968 33.6619 36.5968 33.1048C36.5968 32.5476 36.1452 32.0959 35.588 32.0959C35.0309 32.0959 34.5792 32.5476 34.5792 33.1048C34.5792 33.6619 35.0309 34.1136 35.588 34.1136Z" fill="white"/>
<path d="M5.94427 25.0187C6.50143 25.0187 6.95309 24.567 6.95309 24.0099C6.95309 23.4527 6.50143 23.001 5.94427 23.001C5.38712 23.001 4.93546 23.4527 4.93546 24.0099C4.93546 24.567 5.38712 25.0187 5.94427 25.0187Z" fill="white"/>
<path d="M13.394 27.3157C13.9512 27.3157 14.4028 26.864 14.4028 26.3069C14.4028 25.7497 13.9512 25.298 13.394 25.298C12.8369 25.298 12.3852 25.7497 12.3852 26.3069C12.3852 26.864 12.8369 27.3157 13.394 27.3157Z" fill="white"/>
<path d="M12.4628 31.9252C13.02 31.9252 13.4716 31.4736 13.4716 30.9164C13.4716 30.3593 13.02 29.9076 12.4628 29.9076C11.9056 29.9076 11.454 30.3593 11.454 30.9164C11.454 31.4736 11.9056 31.9252 12.4628 31.9252Z" fill="white"/>
<path d="M4.54745 27.5795C5.10461 27.5795 5.55627 27.1279 5.55627 26.5707C5.55627 26.0136 5.10461 25.5619 4.54745 25.5619C3.9903 25.5619 3.53864 26.0136 3.53864 26.5707C3.53864 27.1279 3.9903 27.5795 4.54745 27.5795Z" fill="white"/>
<path d="M5.94427 32.7323C6.50143 32.7323 6.95309 32.2806 6.95309 31.7235C6.95309 31.1663 6.50143 30.7147 5.94427 30.7147C5.38712 30.7147 4.93546 31.1663 4.93546 31.7235C4.93546 32.2806 5.38712 32.7323 5.94427 32.7323Z" fill="white"/>
<path d="M3.6783 32.484L3.58518 31.8787L5.7425 31.5217L3.9111 25.8723L12.3386 30.6526L13.0525 26.5552L5.35449 24.1961L8.10158 18.6244L2.43668 13.7044L2.8402 13.2388L8.86207 18.4692L6.23915 23.8081L13.751 26.1207L12.8042 31.6304L4.99752 27.2071L6.56507 32.0184L3.6783 32.484Z" fill="white"/>
<path d="M10.9624 22.4727L10.369 22.2903L9.49326 25.1385L10.0866 25.3209L10.9624 22.4727Z" fill="white"/>
<path d="M15.7348 29.2554L13.0844 28.422L12.8982 29.0143L15.5485 29.8477L15.7348 29.2554Z" fill="white"/>
<path d="M10.0041 33.2986L9.05148 29.0585L8.44576 29.1946L9.39833 33.4346L10.0041 33.2986Z" fill="white"/>
<path d="M7.0821 21.3822L4.32404 19.9924L4.04467 20.5468L6.80273 21.9366L7.0821 21.3822Z" fill="white"/>
<path d="M35.6035 33.4462L28.34 30.8854L36.0846 28.6349L30.9785 27.5175L35.3552 21.5732L39.4525 24.3203L42.479 20.6885C39.2818 20.2074 34.9206 19.5556 34.3308 19.4935C34.2222 19.509 34.1756 19.4935 34.1291 19.4624L33.8963 19.3383L33.9739 19.0899C34.0204 18.9503 34.098 18.8882 34.2377 18.8882C34.5792 18.7485 36.5813 17.5224 38.4748 16.3118L34.6257 14.5891L35.1224 9.35873L30.994 8.47407L26.8656 6.36331L22.8458 3.47654L18.4381 5.80458H14.7442L11.7644 7.97742V11.7489L7.18587 11.9041L5.85112 16.079L5.26135 15.8928L6.73578 11.2988L11.1591 11.1436V7.66702L14.558 5.16825H18.2984L22.9234 2.73157L27.2381 5.83562L31.2733 7.85326L35.8674 8.83104L35.3707 14.17L39.8561 16.1877L39.3749 16.4981C39.3594 16.4981 38.1799 17.2586 37.0003 18.0035C36.2864 18.4536 35.7742 18.764 35.3862 18.9968C35.5104 19.0123 35.6345 19.0279 35.7742 19.0434C36.5968 19.1675 37.6987 19.3227 38.8007 19.4935C41.0046 19.8194 43.1929 20.1608 43.1929 20.1608L43.7361 20.2384L39.5922 25.1429L35.5259 22.4268L32.0649 27.1139L38.6144 28.5418L30.3732 30.9474L35.5725 32.7788L41.2684 30.1404L41.5323 30.6991L35.6035 33.4462Z" fill="white"/>
<path d="M33.6243 24.401L31.7529 23.3912L31.4581 23.9376L33.3294 24.9474L33.6243 24.401Z" fill="white"/>
<path d="M32.739 32.1054L32.1577 31.8875L31.395 33.9222L31.9764 34.1401L32.739 32.1054Z" fill="white"/>
<path d="M29.6606 30.8248L28.6363 27.6656L28.0458 27.857L29.0701 31.0163L29.6606 30.8248Z" fill="white"/>
<path d="M35.3181 11.1592L31.6487 10.5182L31.5419 11.1297L35.2112 11.7708L35.3181 11.1592Z" fill="white"/>
<path d="M38.1561 13.2456L37.5884 12.9944L36.653 15.1092L37.2207 15.3604L38.1561 13.2456Z" fill="white"/>
<path d="M9.119 15.0359L8.74677 14.5391L6.18806 16.4561L6.5603 16.9529L9.119 15.0359Z" fill="white"/>
<path d="M14.9167 5.35459L13.6767 2.54279L13.1087 2.79328L14.3486 5.60509L14.9167 5.35459Z" fill="white"/>
<path d="M33.0147 3.87951L32.4317 3.6662L30.8319 8.03873L31.4149 8.25204L33.0147 3.87951Z" fill="white"/>
<path d="M27.921 14.0924C28.0924 14.0924 28.2314 13.9535 28.2314 13.782C28.2314 13.6106 28.0924 13.4716 27.921 13.4716C27.7496 13.4716 27.6106 13.6106 27.6106 13.782C27.6106 13.9535 27.7496 14.0924 27.921 14.0924Z" fill="white" stroke="white" stroke-miterlimit="10"/>
<path d="M16.3428 17.0102C16.5143 17.0102 16.6533 16.8712 16.6533 16.6998C16.6533 16.5284 16.5143 16.3894 16.3428 16.3894C16.1714 16.3894 16.0324 16.5284 16.0324 16.6998C16.0324 16.8712 16.1714 17.0102 16.3428 17.0102Z" fill="white" stroke="white" stroke-miterlimit="10"/>
</g>
<defs>
<clipPath id="clip0_35_750">
<rect width="44" height="44" fill="white"/>
</clipPath>
</defs>
</svg>
