<svg width="44" height="44" viewBox="0 0 44 44" fill="none" xmlns="http://www.w3.org/2000/svg">
<g clip-path="url(#clip0_35_873)">
<g clip-path="url(#clip1_35_873)">
<path d="M21.8681 43.7362C33.6626 43.7362 43.224 34.1748 43.224 22.3803C43.224 10.5857 33.6626 1.02435 21.8681 1.02435C10.0735 1.02435 0.512146 10.5857 0.512146 22.3803C0.512146 34.1748 10.0735 43.7362 21.8681 43.7362Z" fill="#0C111E"/>
<path d="M21.9922 0.0775757C9.90191 0.0775757 0.0775757 9.90191 0.0775757 21.9922C0.0775757 34.0825 9.90191 43.9224 21.9922 43.9224C34.0825 43.9224 43.9224 34.0825 43.9224 21.9922C43.9224 9.90191 34.0825 0.0775757 21.9922 0.0775757ZM21.9922 42.3703C14.5425 42.3703 8.00844 38.3506 4.4543 32.3598C4.34565 32.1735 4.23701 31.9718 4.12837 31.7855C2.52978 28.8832 1.61408 25.5464 1.61408 22.0077C1.61408 19.2917 2.14177 16.6843 3.11955 14.3252C3.19715 14.1234 3.29027 13.9217 3.3834 13.7199C5.38551 9.23454 8.9707 5.6028 13.425 3.52308C13.6113 3.42996 13.7975 3.35236 13.9993 3.27475C16.4515 2.21937 19.1675 1.64512 21.9922 1.64512C25.7016 1.64512 29.1781 2.63842 32.1735 4.37669C32.3598 4.48534 32.5305 4.59398 32.7167 4.70262C37.9781 7.9774 41.6409 13.5647 42.2617 20.0367C42.2772 20.2539 42.3083 20.4557 42.3083 20.673C42.3083 20.7506 42.3238 20.8127 42.3238 20.8903C42.3393 21.2007 42.3548 21.5111 42.3548 21.8215C42.3548 21.8836 42.3548 21.9457 42.3548 22.0077C42.3548 25.0342 41.6875 27.921 40.4924 30.4973C40.3527 30.7922 40.213 31.0871 40.0578 31.382C36.6744 37.9005 29.8455 42.3703 21.9922 42.3703Z" fill="#2CB5E3"/>
<path d="M13.9528 20.7351H13.7355C12.7111 20.7351 11.873 19.897 11.873 18.8726V15.1478C11.873 14.1234 12.7111 13.2853 13.7355 13.2853H13.8441C13.5337 14.3873 13.363 15.5823 13.363 16.8395C13.3785 18.2208 13.5803 19.54 13.9528 20.7351Z" fill="white"/>
<path d="M25.5929 31.8321L22.0077 33.8963L18.4691 31.8476C18.5933 30.5439 18.7019 29.1937 18.7485 27.9055C19.7418 28.4797 20.8437 28.7901 22.0077 28.7901C23.1718 28.7901 24.2737 28.4642 25.2825 27.89C25.3446 29.1626 25.4532 30.5284 25.5929 31.8321Z" fill="white"/>
<path d="M34.2998 37.0469C21.449 45.7693 9.7002 37.0469 9.7002 37.0469C9.80884 37.0314 14.0769 36.1312 17.6931 33.1047L18.2519 33.4307L19.9901 34.4395L22.0078 35.6035L24.0254 34.4395L25.8102 33.4151L26.3224 33.1203C29.9542 36.1622 34.2998 37.0469 34.2998 37.0469Z" fill="white"/>
<path d="M22.0233 6.36334C17.569 6.36334 13.9528 11.0505 13.9528 16.8395C13.9528 22.6286 17.569 27.3157 22.0233 27.3157C26.4776 27.3157 30.0939 22.6286 30.0939 16.8395C30.0939 11.0505 26.4776 6.36334 22.0233 6.36334ZM18.8572 17.0103C17.7863 17.0103 16.9171 16.1411 16.9171 15.0702C16.9171 13.9993 17.7863 13.1302 18.8572 13.1302C19.9281 13.1302 20.7972 13.9993 20.7972 15.0702C20.7972 16.1411 19.9281 17.0103 18.8572 17.0103ZM25.0808 17.0103C24.0099 17.0103 23.1408 16.1411 23.1408 15.0702C23.1408 13.9993 24.0099 13.1302 25.0808 13.1302C26.1517 13.1302 27.0208 13.9993 27.0208 15.0702C27.0364 16.1411 26.1672 17.0103 25.0808 17.0103Z" fill="white"/>
<path d="M18.8572 16.5757C18.0191 16.5757 17.3362 15.8928 17.3362 15.0547C17.3362 14.2166 18.0191 13.5337 18.8572 13.5337C19.6953 13.5337 20.3782 14.2166 20.3782 15.0547C20.3626 15.9083 19.6797 16.5757 18.8572 16.5757ZM18.8572 13.8596C18.1898 13.8596 17.6466 14.4028 17.6466 15.0702C17.6466 15.7376 18.1898 16.2808 18.8572 16.2808C19.5245 16.2808 20.0678 15.7376 20.0678 15.0702C20.0678 14.4028 19.509 13.8596 18.8572 13.8596Z" fill="white"/>
<path d="M25.0808 16.5757C24.2427 16.5757 23.5598 15.8928 23.5598 15.0547C23.5598 14.2166 24.2427 13.5337 25.0808 13.5337C25.9189 13.5337 26.6018 14.2166 26.6018 15.0547C26.6018 15.9083 25.9189 16.5757 25.0808 16.5757ZM25.0808 13.8596C24.4134 13.8596 23.8702 14.4028 23.8702 15.0702C23.8702 15.7376 24.4134 16.2808 25.0808 16.2808C25.7482 16.2808 26.2914 15.7376 26.2914 15.0702C26.2914 14.4028 25.7482 13.8596 25.0808 13.8596Z" fill="white"/>
<path d="M18.8572 15.6599C19.1829 15.6599 19.4469 15.3959 19.4469 15.0702C19.4469 14.7445 19.1829 14.4804 18.8572 14.4804C18.5314 14.4804 18.2674 14.7445 18.2674 15.0702C18.2674 15.3959 18.5314 15.6599 18.8572 15.6599Z" fill="#2CB5E3"/>
<path d="M25.0808 15.6599C25.4065 15.6599 25.6706 15.3959 25.6706 15.0702C25.6706 14.7445 25.4065 14.4804 25.0808 14.4804C24.7551 14.4804 24.491 14.7445 24.491 15.0702C24.491 15.3959 24.7551 15.6599 25.0808 15.6599Z" fill="#2CB5E3"/>
<path d="M22.1785 23.4822C20.9834 23.4822 19.9746 22.8303 19.9591 22.8148L20.1298 22.551C20.1453 22.5665 22.2406 23.9167 23.8392 22.5665L24.0409 22.7993C23.4512 23.3115 22.7838 23.4822 22.1785 23.4822Z" fill="#0C111E"/>
<path d="M19.0002 9.4918L17.371 8.10156L17.1695 8.33769L18.7988 9.72793L19.0002 9.4918Z" fill="#0C111E"/>
<path d="M18.8882 10.1347C19.1796 10.1347 19.4159 9.89847 19.4159 9.60704C19.4159 9.3156 19.1796 9.07935 18.8882 9.07935C18.5967 9.07935 18.3605 9.3156 18.3605 9.60704C18.3605 9.89847 18.5967 10.1347 18.8882 10.1347Z" fill="#0C111E"/>
<path d="M20.2848 25.1787L19.9801 25.1196L19.5721 27.2222L19.8768 27.2813L20.2848 25.1787Z" fill="#0C111E"/>
<path d="M20.1298 25.6861C20.4212 25.6861 20.6575 25.4498 20.6575 25.1584C20.6575 24.8669 20.4212 24.6307 20.1298 24.6307C19.8384 24.6307 19.6021 24.8669 19.6021 25.1584C19.6021 25.4498 19.8384 25.6861 20.1298 25.6861Z" fill="#0C111E"/>
<path d="M22.1499 27.5082L22.1214 25.3666L21.811 25.3708L21.8395 27.5124L22.1499 27.5082Z" fill="#0C111E"/>
<path d="M21.9612 25.9033C22.2527 25.9033 22.4889 25.6671 22.4889 25.3757C22.4889 25.0842 22.2527 24.848 21.9612 24.848C21.6698 24.848 21.4335 25.0842 21.4335 25.3757C21.4335 25.6671 21.6698 25.9033 21.9612 25.9033Z" fill="#0C111E"/>
<path d="M24.5957 27.1958L24.0054 25.1368L23.707 25.2224L24.2973 27.2813L24.5957 27.1958Z" fill="#0C111E"/>
<path d="M23.8547 25.7171C24.1461 25.7171 24.3823 25.4809 24.3823 25.1894C24.3823 24.898 24.1461 24.6617 23.8547 24.6617C23.5632 24.6617 23.327 24.898 23.327 25.1894C23.327 25.4809 23.5632 25.7171 23.8547 25.7171Z" fill="#0C111E"/>
<path d="M30.0938 20.2695H30.3111C31.3354 20.2695 32.1735 19.4314 32.1735 18.4071V14.6822C32.1735 13.6579 31.3354 12.8198 30.3111 12.8198H30.2025C30.5129 13.9217 30.6836 15.1168 30.6836 16.3739C30.6681 17.7552 30.4663 19.0744 30.0938 20.2695Z" fill="white"/>
<path d="M17.8125 10.6905L16.0438 9.48279L15.8688 9.73912L17.6375 10.9469L17.8125 10.6905Z" fill="#0C111E"/>
<path d="M17.7242 11.3453C18.0156 11.3453 18.2519 11.109 18.2519 10.8176C18.2519 10.5262 18.0156 10.2899 17.7242 10.2899C17.4327 10.2899 17.1965 10.5262 17.1965 10.8176C17.1965 11.109 17.4327 11.3453 17.7242 11.3453Z" fill="#0C111E"/>
<path d="M26.7434 8.245L26.5121 8.03796L25.4665 9.20594L25.6978 9.41298L26.7434 8.245Z" fill="#0C111E"/>
<path d="M25.1845 9.31611C25.1859 9.52183 25.3677 9.68735 25.5906 9.68581C25.8134 9.68427 25.9929 9.51625 25.9915 9.31054C25.9901 9.10482 25.8083 8.9393 25.5854 8.94084C25.3626 8.94238 25.1831 9.11039 25.1845 9.31611Z" fill="#0C111E"/>
<path d="M21.6224 9.02809C21.6238 9.23381 21.8056 9.39933 22.0285 9.39779C22.2514 9.39625 22.4309 9.22823 22.4295 9.02251C22.428 8.81679 22.2462 8.65127 22.0234 8.65281C21.8005 8.65435 21.621 8.82237 21.6224 9.02809Z" fill="#0C111E"/>
<path d="M25.5632 9.45613L25.4826 9.15637L23.9688 9.56346L24.0494 9.86322L25.5632 9.45613Z" fill="#0C111E"/>
<path d="M15.806 14.711L11.9244 13.3049L11.8187 13.5967L15.7002 15.0028L15.806 14.711Z" fill="#0C111E"/>
<path d="M17.9059 10.9322L17.5956 10.9215L17.5417 12.4881L17.8519 12.4988L17.9059 10.9322Z" fill="#0C111E"/>
<path d="M17.693 12.621L17.5872 12.3292L15.8217 12.9694L15.9275 13.2612L17.693 12.621Z" fill="#0C111E"/>
<path d="M16.1815 11.9373L15.8754 11.8856L14.9193 17.5477L15.2254 17.5994L16.1815 11.9373Z" fill="#0C111E"/>
<path d="M16.9674 18.0957L11.5064 16.0392L11.397 16.3297L16.858 18.3861L16.9674 18.0957Z" fill="#0C111E"/>
<path d="M26.3389 10.142L26.1164 9.92554L25.0233 11.0492L25.2458 11.2656L26.3389 10.142Z" fill="#0C111E"/>
<path d="M27.4887 11.7822L26.4731 9.94946L26.2016 10.0999L27.2172 11.9326L27.4887 11.7822Z" fill="#0C111E"/>
<path d="M32.5081 14.3589L27.438 11.6959L27.2937 11.9707L32.3638 14.6337L32.5081 14.3589Z" fill="#0C111E"/>
<path d="M35.0263 16.2274L34.9745 15.9213L29.3277 16.8777L29.3795 17.1838L35.0263 16.2274Z" fill="#0C111E"/>
<path d="M29.4724 16.9083L28.4651 15.8104L28.2364 16.0202L29.2436 17.1181L29.4724 16.9083Z" fill="#0C111E"/>
<path d="M28.4225 16.0889L28.1443 15.9512L27.4832 17.2865L27.7614 17.4242L28.4225 16.0889Z" fill="#0C111E"/>
<path d="M27.4693 8.94666L27.238 8.73962L26.1924 9.9076L26.4237 10.1146L27.4693 8.94666Z" fill="#0C111E"/>
<path d="M25.9048 10.0019C25.9062 10.2076 26.088 10.3731 26.3109 10.3716C26.5338 10.3701 26.7133 10.202 26.7119 9.99633C26.7104 9.79061 26.5286 9.62509 26.3058 9.62663C26.0829 9.62817 25.9034 9.79619 25.9048 10.0019Z" fill="#0C111E"/>
<path d="M23.7305 8.38098C22.3337 7.49632 20.2539 8.36546 20.2384 8.38098L20.1143 8.10161C20.2074 8.05505 22.3647 7.15488 23.9012 8.13265L23.7305 8.38098Z" fill="#0C111E"/>
<path d="M20.1764 8.59825C20.3821 8.59825 20.5489 8.43148 20.5489 8.22576C20.5489 8.02004 20.3821 7.85327 20.1764 7.85327C19.9707 7.85327 19.8039 8.02004 19.8039 8.22576C19.8039 8.43148 19.9707 8.59825 20.1764 8.59825Z" fill="#0C111E"/>
<path d="M23.8081 8.61375C24.0138 8.61375 24.1806 8.44698 24.1806 8.24126C24.1806 8.03554 24.0138 7.86877 23.8081 7.86877C23.6024 7.86877 23.4356 8.03554 23.4356 8.24126C23.4356 8.44698 23.6024 8.61375 23.8081 8.61375Z" fill="#0C111E"/>
<path d="M22.5044 20.6109C22.4268 20.6109 22.3647 20.5954 22.2871 20.5644C21.8836 20.3781 21.8525 19.6642 21.8525 19.5866V9.01727H22.1629V19.5866C22.1629 19.7728 22.225 20.1919 22.4113 20.285C22.5199 20.3316 22.7062 20.2695 22.939 20.0832L23.1407 20.3316C22.9079 20.5178 22.6906 20.6109 22.5044 20.6109Z" fill="#0C111E"/>
<path d="M23.0476 20.5799C23.2448 20.5799 23.4046 20.4201 23.4046 20.2229C23.4046 20.0258 23.2448 19.866 23.0476 19.866C22.8505 19.866 22.6907 20.0258 22.6907 20.2229C22.6907 20.4201 22.8505 20.5799 23.0476 20.5799Z" fill="#0C111E"/>
<path d="M24.0254 10.0261C24.1968 10.0261 24.3358 9.88711 24.3358 9.71568C24.3358 9.54425 24.1968 9.40527 24.0254 9.40527C23.8539 9.40527 23.715 9.54425 23.715 9.71568C23.715 9.88711 23.8539 10.0261 24.0254 10.0261Z" fill="#0C111E"/>
<path d="M25.1429 11.4539C25.3143 11.4539 25.4533 11.315 25.4533 11.1435C25.4533 10.9721 25.3143 10.8331 25.1429 10.8331C24.9714 10.8331 24.8325 10.9721 24.8325 11.1435C24.8325 11.315 24.9714 11.4539 25.1429 11.4539Z" fill="#0C111E"/>
<path d="M8.30337 19.6487C8.86053 19.6487 9.31219 19.197 9.31219 18.6399C9.31219 18.0827 8.86053 17.631 8.30337 17.631C7.74622 17.631 7.29456 18.0827 7.29456 18.6399C7.29456 19.197 7.74622 19.6487 8.30337 19.6487Z" fill="#2CB5E3"/>
<path d="M4.19046 21.2783C4.74761 21.2783 5.19928 20.8267 5.19928 20.2695C5.19928 19.7123 4.74761 19.2607 4.19046 19.2607C3.6333 19.2607 3.18164 19.7123 3.18164 20.2695C3.18164 20.8267 3.6333 21.2783 4.19046 21.2783Z" fill="#2CB5E3"/>
<path d="M10.6779 23.389C11.2351 23.389 11.6868 22.9374 11.6868 22.3802C11.6868 21.8231 11.2351 21.3714 10.6779 21.3714C10.1208 21.3714 9.66913 21.8231 9.66913 22.3802C9.66913 22.9374 10.1208 23.389 10.6779 23.389Z" fill="#2CB5E3"/>
<path d="M15.6444 30.5594C16.2016 30.5594 16.6533 30.1078 16.6533 29.5506C16.6533 28.9935 16.2016 28.5418 15.6444 28.5418C15.0873 28.5418 14.6356 28.9935 14.6356 29.5506C14.6356 30.1078 15.0873 30.5594 15.6444 30.5594Z" fill="#2CB5E3"/>
<path d="M9.70016 34.3774C10.2573 34.3774 10.709 33.9258 10.709 33.3686C10.709 32.8115 10.2573 32.3598 9.70016 32.3598C9.14301 32.3598 8.69135 32.8115 8.69135 33.3686C8.69135 33.9258 9.14301 34.3774 9.70016 34.3774Z" fill="#2CB5E3"/>
<path d="M6.95309 12.7111C7.51025 12.7111 7.96191 12.2595 7.96191 11.7023C7.96191 11.1451 7.51025 10.6935 6.95309 10.6935C6.39594 10.6935 5.94427 11.1451 5.94427 11.7023C5.94427 12.2595 6.39594 12.7111 6.95309 12.7111Z" fill="#2CB5E3"/>
<path d="M8.92416 15.7996C9.48132 15.7996 9.93298 15.348 9.93298 14.7908C9.93298 14.2336 9.48132 13.782 8.92416 13.782C8.36701 13.782 7.91534 14.2336 7.91534 14.7908C7.91534 15.348 8.36701 15.7996 8.92416 15.7996Z" fill="#2CB5E3"/>
<path d="M11.4539 12.3541C12.0111 12.3541 12.4628 11.9025 12.4628 11.3453C12.4628 10.7882 12.0111 10.3365 11.4539 10.3365C10.8968 10.3365 10.4451 10.7882 10.4451 11.3453C10.4451 11.9025 10.8968 12.3541 11.4539 12.3541Z" fill="#2CB5E3"/>
<path d="M11.4539 8.83105C12.0111 8.83105 12.4628 8.37939 12.4628 7.82223C12.4628 7.26508 12.0111 6.81342 11.4539 6.81342C10.8968 6.81342 10.4451 7.26508 10.4451 7.82223C10.4451 8.37939 10.8968 8.83105 11.4539 8.83105Z" fill="#2CB5E3"/>
<path d="M18.2519 6.36334C18.809 6.36334 19.2607 5.91168 19.2607 5.35452C19.2607 4.79737 18.809 4.3457 18.2519 4.3457C17.6947 4.3457 17.243 4.79737 17.243 5.35452C17.243 5.91168 17.6947 6.36334 18.2519 6.36334Z" fill="#2CB5E3"/>
<path d="M22.8769 4.15942C23.4341 4.15942 23.8857 3.70776 23.8857 3.1506C23.8857 2.59345 23.4341 2.14178 22.8769 2.14178C22.3198 2.14178 21.8681 2.59345 21.8681 3.1506C21.8681 3.70776 22.3198 4.15942 22.8769 4.15942Z" fill="#2CB5E3"/>
<path d="M27.921 7.49627C28.4781 7.49627 28.9298 7.04461 28.9298 6.48746C28.9298 5.9303 28.4781 5.47864 27.921 5.47864C27.3638 5.47864 26.9122 5.9303 26.9122 6.48746C26.9122 7.04461 27.3638 7.49627 27.921 7.49627Z" fill="#2CB5E3"/>
<path d="M35.4793 10.0882C36.0365 10.0882 36.4882 9.63653 36.4882 9.07938C36.4882 8.52222 36.0365 8.07056 35.4793 8.07056C34.9222 8.07056 34.4705 8.52222 34.4705 9.07938C34.4705 9.63653 34.9222 10.0882 35.4793 10.0882Z" fill="#2CB5E3"/>
<path d="M34.9983 15.303C35.5554 15.303 36.0071 14.8513 36.0071 14.2942C36.0071 13.737 35.5554 13.2853 34.9983 13.2853C34.4411 13.2853 33.9894 13.737 33.9894 14.2942C33.9894 14.8513 34.4411 15.303 34.9983 15.303Z" fill="#2CB5E3"/>
<path d="M31.7235 11.8265C32.2806 11.8265 32.7323 11.3748 32.7323 10.8177C32.7323 10.2605 32.2806 9.80884 31.7235 9.80884C31.1663 9.80884 30.7147 10.2605 30.7147 10.8177C30.7147 11.3748 31.1663 11.8265 31.7235 11.8265Z" fill="#2CB5E3"/>
<path d="M39.1111 17.181C39.6683 17.181 40.1199 16.7293 40.1199 16.1721C40.1199 15.615 39.6683 15.1633 39.1111 15.1633C38.554 15.1633 38.1023 15.615 38.1023 16.1721C38.1023 16.7293 38.554 17.181 39.1111 17.181Z" fill="#2CB5E3"/>
<path d="M37.8695 14.139C38.4266 14.139 38.8783 13.6873 38.8783 13.1302C38.8783 12.573 38.4266 12.1213 37.8695 12.1213C37.3123 12.1213 36.8607 12.573 36.8607 13.1302C36.8607 13.6873 37.3123 14.139 37.8695 14.139Z" fill="#2CB5E3"/>
<path d="M34.5792 20.1143C35.1363 20.1143 35.588 19.6627 35.588 19.1055C35.588 18.5483 35.1363 18.0967 34.5792 18.0967C34.022 18.0967 33.5704 18.5483 33.5704 19.1055C33.5704 19.6627 34.022 20.1143 34.5792 20.1143Z" fill="#2CB5E3"/>
<path d="M39.5457 25.6861C40.1028 25.6861 40.5545 25.2344 40.5545 24.6773C40.5545 24.1201 40.1028 23.6685 39.5457 23.6685C38.9885 23.6685 38.5369 24.1201 38.5369 24.6773C38.5369 25.2344 38.9885 25.6861 39.5457 25.6861Z" fill="#2CB5E3"/>
<path d="M35.588 23.1252C36.1451 23.1252 36.5968 22.6736 36.5968 22.1164C36.5968 21.5593 36.1451 21.1076 35.588 21.1076C35.0308 21.1076 34.5792 21.5593 34.5792 22.1164C34.5792 22.6736 35.0308 23.1252 35.588 23.1252Z" fill="#2CB5E3"/>
<path d="M31.6769 28.3245C32.2341 28.3245 32.6857 27.8729 32.6857 27.3157C32.6857 26.7585 32.2341 26.3069 31.6769 26.3069C31.1198 26.3069 30.6681 26.7585 30.6681 27.3157C30.6681 27.8729 31.1198 28.3245 31.6769 28.3245Z" fill="#2CB5E3"/>
<path d="M31.5993 24.6772C32.1564 24.6772 32.6081 24.2256 32.6081 23.6684C32.6081 23.1113 32.1564 22.6596 31.5993 22.6596C31.0421 22.6596 30.5905 23.1113 30.5905 23.6684C30.5905 24.2256 31.0421 24.6772 31.5993 24.6772Z" fill="#2CB5E3"/>
<path d="M28.3401 28.7746C28.8972 28.7746 29.3489 28.3229 29.3489 27.7658C29.3489 27.2086 28.8972 26.757 28.3401 26.757C27.7829 26.757 27.3312 27.2086 27.3312 27.7658C27.3312 28.3229 27.7829 28.7746 28.3401 28.7746Z" fill="#2CB5E3"/>
<path d="M31.6769 35.0448C32.2341 35.0448 32.6857 34.5931 32.6857 34.036C32.6857 33.4788 32.2341 33.0272 31.6769 33.0272C31.1198 33.0272 30.6681 33.4788 30.6681 34.036C30.6681 34.5931 31.1198 35.0448 31.6769 35.0448Z" fill="#2CB5E3"/>
<path d="M37.6056 29.5506C38.1628 29.5506 38.6144 29.0989 38.6144 28.5418C38.6144 27.9846 38.1628 27.533 37.6056 27.533C37.0485 27.533 36.5968 27.9846 36.5968 28.5418C36.5968 29.0989 37.0485 29.5506 37.6056 29.5506Z" fill="#2CB5E3"/>
<path d="M29.3333 31.9252C29.8905 31.9252 30.3422 31.4736 30.3422 30.9164C30.3422 30.3593 29.8905 29.9076 29.3333 29.9076C28.7762 29.9076 28.3245 30.3593 28.3245 30.9164C28.3245 31.4736 28.7762 31.9252 29.3333 31.9252Z" fill="#2CB5E3"/>
<path d="M35.588 34.1136C36.1451 34.1136 36.5968 33.6619 36.5968 33.1048C36.5968 32.5476 36.1451 32.0959 35.588 32.0959C35.0308 32.0959 34.5792 32.5476 34.5792 33.1048C34.5792 33.6619 35.0308 34.1136 35.588 34.1136Z" fill="#2CB5E3"/>
<path d="M5.94424 25.0187C6.5014 25.0187 6.95306 24.567 6.95306 24.0099C6.95306 23.4527 6.5014 23.001 5.94424 23.001C5.38709 23.001 4.93542 23.4527 4.93542 24.0099C4.93542 24.567 5.38709 25.0187 5.94424 25.0187Z" fill="#2CB5E3"/>
<path d="M13.394 27.3157C13.9512 27.3157 14.4028 26.864 14.4028 26.3069C14.4028 25.7497 13.9512 25.298 13.394 25.298C12.8369 25.298 12.3852 25.7497 12.3852 26.3069C12.3852 26.864 12.8369 27.3157 13.394 27.3157Z" fill="#2CB5E3"/>
<path d="M12.4628 31.9252C13.02 31.9252 13.4716 31.4736 13.4716 30.9164C13.4716 30.3593 13.02 29.9076 12.4628 29.9076C11.9056 29.9076 11.454 30.3593 11.454 30.9164C11.454 31.4736 11.9056 31.9252 12.4628 31.9252Z" fill="#2CB5E3"/>
<path d="M4.54745 27.5795C5.10461 27.5795 5.55627 27.1279 5.55627 26.5707C5.55627 26.0136 5.10461 25.5619 4.54745 25.5619C3.9903 25.5619 3.53864 26.0136 3.53864 26.5707C3.53864 27.1279 3.9903 27.5795 4.54745 27.5795Z" fill="#2CB5E3"/>
<path d="M5.94424 32.7323C6.5014 32.7323 6.95306 32.2806 6.95306 31.7235C6.95306 31.1663 6.5014 30.7147 5.94424 30.7147C5.38709 30.7147 4.93542 31.1663 4.93542 31.7235C4.93542 32.2806 5.38709 32.7323 5.94424 32.7323Z" fill="#2CB5E3"/>
<path d="M20.3005 12.4783C20.472 12.4783 20.6109 12.3393 20.6109 12.1679C20.6109 11.9965 20.472 11.8575 20.3005 11.8575C20.1291 11.8575 19.9901 11.9965 19.9901 12.1679C19.9901 12.3393 20.1291 12.4783 20.3005 12.4783Z" fill="#0C111E"/>
<path d="M27.3467 12.1679C27.5182 12.1679 27.6571 12.029 27.6571 11.8575C27.6571 11.6861 27.5182 11.5471 27.3467 11.5471C27.1753 11.5471 27.0363 11.6861 27.0363 11.8575C27.0363 12.029 27.1753 12.1679 27.3467 12.1679Z" fill="#0C111E"/>
<path d="M27.921 14.0924C28.0924 14.0924 28.2314 13.9535 28.2314 13.782C28.2314 13.6106 28.0924 13.4716 27.921 13.4716C27.7496 13.4716 27.6106 13.6106 27.6106 13.782C27.6106 13.9535 27.7496 14.0924 27.921 14.0924Z" fill="#0C111E"/>
<path d="M16.3429 17.0102C16.5143 17.0102 16.6533 16.8712 16.6533 16.6998C16.6533 16.5284 16.5143 16.3894 16.3429 16.3894C16.1714 16.3894 16.0325 16.5284 16.0325 16.6998C16.0325 16.8712 16.1714 17.0102 16.3429 17.0102Z" fill="#0C111E"/>
<path d="M23.9478 23.0011C24.1192 23.0011 24.2582 22.8621 24.2582 22.6907C24.2582 22.5192 24.1192 22.3802 23.9478 22.3802C23.7764 22.3802 23.6374 22.5192 23.6374 22.6907C23.6374 22.8621 23.7764 23.0011 23.9478 23.0011Z" fill="#0C111E"/>
<path d="M20.0522 23.0011C20.2237 23.0011 20.3626 22.8621 20.3626 22.6907C20.3626 22.5192 20.2237 22.3802 20.0522 22.3802C19.8808 22.3802 19.7418 22.5192 19.7418 22.6907C19.7418 22.8621 19.8808 23.0011 20.0522 23.0011Z" fill="#0C111E"/>
<path d="M29.5196 13.2854C29.691 13.2854 29.83 13.1464 29.83 12.975C29.83 12.8035 29.691 12.6646 29.5196 12.6646C29.3481 12.6646 29.2092 12.8035 29.2092 12.975C29.2092 13.1464 29.3481 13.2854 29.5196 13.2854Z" fill="#0C111E"/>
<path d="M31.0251 14.0924C31.1965 14.0924 31.3355 13.9535 31.3355 13.782C31.3355 13.6106 31.1965 13.4716 31.0251 13.4716C30.8536 13.4716 30.7147 13.6106 30.7147 13.782C30.7147 13.9535 30.8536 14.0924 31.0251 14.0924Z" fill="#0C111E"/>
<path d="M28.3556 16.2342C28.527 16.2342 28.666 16.0952 28.666 15.9238C28.666 15.7524 28.527 15.6134 28.3556 15.6134C28.1841 15.6134 28.0452 15.7524 28.0452 15.9238C28.0452 16.0952 28.1841 16.2342 28.3556 16.2342Z" fill="#0C111E"/>
<path d="M29.3644 17.3206C29.5358 17.3206 29.6748 17.1817 29.6748 17.0102C29.6748 16.8388 29.5358 16.6998 29.3644 16.6998C29.1929 16.6998 29.054 16.8388 29.054 17.0102C29.054 17.1817 29.1929 17.3206 29.3644 17.3206Z" fill="#0C111E"/>
<path d="M31.2113 19.1831C31.3827 19.1831 31.5217 19.0441 31.5217 18.8727C31.5217 18.7012 31.3827 18.5623 31.2113 18.5623C31.0399 18.5623 30.9009 18.7012 30.9009 18.8727C30.9009 19.0441 31.0399 19.1831 31.2113 19.1831Z" fill="#0C111E"/>
<path d="M27.6106 17.6621C27.782 17.6621 27.921 17.5231 27.921 17.3517C27.921 17.1802 27.782 17.0413 27.6106 17.0413C27.4391 17.0413 27.3002 17.1802 27.3002 17.3517C27.3002 17.5231 27.4391 17.6621 27.6106 17.6621Z" fill="#0C111E"/>
<path d="M23.715 12.23C23.8864 12.23 24.0254 12.091 24.0254 11.9196C24.0254 11.7482 23.8864 11.6092 23.715 11.6092C23.5436 11.6092 23.4046 11.7482 23.4046 11.9196C23.4046 12.091 23.5436 12.23 23.715 12.23Z" fill="#0C111E"/>
<path d="M15.8462 13.4406C16.0177 13.4406 16.1566 13.3016 16.1566 13.1302C16.1566 12.9587 16.0177 12.8198 15.8462 12.8198C15.6748 12.8198 15.5358 12.9587 15.5358 13.1302C15.5358 13.3016 15.6748 13.4406 15.8462 13.4406Z" fill="#0C111E"/>
<path d="M15.5513 15.1012C15.7227 15.1012 15.8617 14.9622 15.8617 14.7908C15.8617 14.6194 15.7227 14.4804 15.5513 14.4804C15.3799 14.4804 15.2409 14.6194 15.2409 14.7908C15.2409 14.9622 15.3799 15.1012 15.5513 15.1012Z" fill="#0C111E"/>
<path d="M17.6931 12.7732C17.8645 12.7732 18.0035 12.6342 18.0035 12.4628C18.0035 12.2914 17.8645 12.1524 17.6931 12.1524C17.5217 12.1524 17.3827 12.2914 17.3827 12.4628C17.3827 12.6342 17.5217 12.7732 17.6931 12.7732Z" fill="#0C111E"/>
<path d="M16.0325 12.3231C16.2039 12.3231 16.3429 12.1841 16.3429 12.0127C16.3429 11.8412 16.2039 11.7023 16.0325 11.7023C15.861 11.7023 15.722 11.8412 15.722 12.0127C15.722 12.1841 15.861 12.3231 16.0325 12.3231Z" fill="#0C111E"/>
<path d="M16.9016 18.5467C17.073 18.5467 17.212 18.4077 17.212 18.2363C17.212 18.0649 17.073 17.9259 16.9016 17.9259C16.7302 17.9259 16.5912 18.0649 16.5912 18.2363C16.5912 18.4077 16.7302 18.5467 16.9016 18.5467Z" fill="#0C111E"/>
<path d="M20.4402 11.7023L20.1298 11.6868C20.1609 11.0039 20.3781 10.4917 20.7662 10.1813C21.3094 9.74675 21.9767 9.85539 22.0078 9.85539L21.9612 10.1658C21.9612 10.1658 21.387 10.0882 20.9679 10.4296C20.6575 10.678 20.4713 11.1125 20.4402 11.7023Z" fill="#0C111E"/>
<path d="M23.5753 11.7023C23.5443 11.1125 23.3735 10.6779 23.0476 10.4141C22.613 10.0571 22.0543 10.1502 22.0543 10.1502L22.0078 9.83983C22.0388 9.83983 22.7062 9.73119 23.2494 10.1658C23.6374 10.4762 23.8547 10.9883 23.8857 11.6712L23.5753 11.7023Z" fill="#0C111E"/>
<path d="M29.6727 13.0383L29.3843 12.9236L28.2087 15.88L28.4971 15.9947L29.6727 13.0383Z" fill="#0C111E"/>
<path d="M31.4904 16.6942L31.1805 16.6763L31.0544 18.8609L31.3642 18.8788L31.4904 16.6942Z" fill="#0C111E"/>
<path d="M13.7509 26.1207L13.3474 28.4953L13.2388 29.1161L12.8042 31.6304L9.15694 29.5662L8.48957 29.1937L4.9975 27.2071L6.56505 32.0184L4.45429 32.3598C4.34565 32.1736 4.23701 31.9718 4.12837 31.7856L5.74248 31.5217L3.89556 25.8723L12.3386 30.6526L13.037 26.5397L5.35447 24.1806L6.53401 21.7905L6.81338 21.2318L8.10156 18.6088L3.13507 14.2942C3.21267 14.0924 3.30579 13.8907 3.39892 13.6889L5.41655 15.4272L5.92872 15.8773L6.39433 16.2808L6.87546 16.6998L8.8931 18.4381L6.25465 23.7926L9.60703 24.8169L10.1968 25.0032L13.7509 26.1207Z" fill="#2CB5E3"/>
<path d="M10.9624 22.4727L10.369 22.2903L9.49323 25.1385L10.0866 25.3209L10.9624 22.4727Z" fill="#2CB5E3"/>
<path d="M15.7347 29.2554L13.0844 28.4219L12.8982 29.0142L15.5485 29.8476L15.7347 29.2554Z" fill="#2CB5E3"/>
<path d="M10.004 33.2985L9.05145 29.0584L8.44573 29.1945L9.3983 33.4346L10.004 33.2985Z" fill="#2CB5E3"/>
<path d="M7.0821 21.3822L4.32404 19.9924L4.04467 20.5468L6.80273 21.9366L7.0821 21.3822Z" fill="#2CB5E3"/>
<path d="M35.5725 32.7788L40.5079 30.4974C40.3682 30.7923 40.2286 31.0871 40.0734 31.382L35.6035 33.4462L32.6236 32.3908L32.0339 32.1891L28.34 30.8854L28.9608 30.6991L29.5506 30.5284L36.0846 28.6194L30.9785 27.502L32.9961 24.7549L33.3686 24.2427L35.3552 21.5422L39.4525 24.2893L42.3238 20.8438C42.3393 21.1542 42.3548 21.4646 42.3548 21.775L39.5767 25.1429L35.5104 22.4268L32.0494 27.1139L38.5989 28.5418L30.3577 30.9475L35.5725 32.7788Z" fill="#2CB5E3"/>
<path d="M42.3238 20.6575C39.1421 20.1764 34.9206 19.54 34.3619 19.4935C34.2532 19.509 34.2067 19.4935 34.1601 19.4469L33.9273 19.3228L34.0049 19.0744C34.0515 18.9347 34.1291 18.8727 34.2688 18.8727C34.6102 18.733 36.6123 17.5069 38.5058 16.2963L34.6568 14.5735L34.9206 11.7333L34.9827 11.1125L35.1534 9.34321L31.025 8.45855L26.8656 6.36331L22.8458 3.47654L18.4381 5.80458H14.7442L11.7644 7.99294V11.7644L7.18587 11.9196L5.9132 15.9083L5.85112 16.1101L5.26135 15.9238L5.40103 15.4737L6.72026 11.3298L11.1435 11.1746V7.66702L14.2631 5.37002L14.5425 5.16825H18.2829L22.9079 2.73157L27.2226 5.83562L30.9785 7.71358L31.2578 7.85326L31.5682 7.91534L35.8518 8.83104L35.3552 14.17L36.8141 14.8219L37.3728 15.0702L39.8405 16.1721L39.3594 16.4825C39.3439 16.4825 38.1643 17.243 36.9848 17.988C36.2709 18.4381 35.7587 18.7485 35.3707 18.9813C35.4949 18.9968 35.619 19.0123 35.7587 19.0279C36.5813 19.152 37.6832 19.3072 38.7852 19.478C40.1354 19.6797 41.4702 19.8815 42.3083 20.0056C42.2927 20.2229 42.3083 20.4402 42.3238 20.6575Z" fill="#2CB5E3"/>
<path d="M33.6242 24.4009L31.7529 23.3912L31.458 23.9376L33.3294 24.9473L33.6242 24.4009Z" fill="#2CB5E3"/>
<path d="M32.739 32.1054L32.1577 31.8875L31.395 33.9222L31.9764 34.1401L32.739 32.1054Z" fill="#2CB5E3"/>
<path d="M29.6606 30.8248L28.6363 27.6655L28.0458 27.857L29.0701 31.0162L29.6606 30.8248Z" fill="#2CB5E3"/>
<path d="M35.318 11.1592L31.6487 10.5182L31.5418 11.1297L35.2112 11.7708L35.318 11.1592Z" fill="#2CB5E3"/>
<path d="M38.1561 13.2456L37.5884 12.9944L36.653 15.1092L37.2207 15.3604L38.1561 13.2456Z" fill="#2CB5E3"/>
<path d="M9.119 15.0359L8.74677 14.5391L6.18806 16.4561L6.5603 16.9529L9.119 15.0359Z" fill="#2CB5E3"/>
<path d="M14.9305 5.35452L14.3563 5.60284L14.2476 5.37004L13.425 3.5076C13.6113 3.41448 13.7975 3.33688 13.9993 3.25928L14.8374 5.16827L14.9305 5.35452Z" fill="#2CB5E3"/>
<path d="M32.7322 4.68713L31.5372 7.91535L31.413 8.2568L30.8232 8.03951L30.9474 7.71359L32.1735 4.36121C32.3597 4.46985 32.546 4.57849 32.7322 4.68713Z" fill="#2CB5E3"/>
<path d="M23.1873 38.5369L21.9922 39.9958L20.7972 38.5369L21.9922 35.4328L23.1873 38.5369Z" fill="#0C111E"/>
</g>
</g>
<defs>
<clipPath id="clip0_35_873">
<rect width="44" height="44" fill="white"/>
</clipPath>
<clipPath id="clip1_35_873">
<rect width="44" height="44" fill="white"/>
</clipPath>
</defs>
</svg>
